<?xml version="1.0" encoding="UTF-8" standalone="no"?>
<!-- Created with Inkscape (http://www.inkscape.org/) -->

<svg
   xmlns:dc="http://purl.org/dc/elements/1.1/"
   xmlns:cc="http://creativecommons.org/ns#"
   xmlns:rdf="http://www.w3.org/1999/02/22-rdf-syntax-ns#"
   xmlns:svg="http://www.w3.org/2000/svg"
   xmlns="http://www.w3.org/2000/svg"
   xmlns:sodipodi="http://sodipodi.sourceforge.net/DTD/sodipodi-0.dtd"
   xmlns:inkscape="http://www.inkscape.org/namespaces/inkscape"
   version="1.1"
   id="svg2720"
   xml:space="preserve"
   width="256"
   height="256"
   viewBox="0 0 256 256"
   sodipodi:docname="Coronavirus_cartoon256.svg"
   inkscape:version="0.92.3 (2405546, 2018-03-11)"><metadata
     id="metadata2726"><rdf:RDF><cc:Work
         rdf:about=""><dc:format>image/svg+xml</dc:format><dc:type
           rdf:resource="http://purl.org/dc/dcmitype/StillImage" /><dc:title></dc:title></cc:Work></rdf:RDF></metadata><defs
     id="defs2724"><inkscape:perspective
       sodipodi:type="inkscape:persp3d"
       inkscape:vp_x="0 : 140.16446 : 1"
       inkscape:vp_y="0 : 999.99999 : 0"
       inkscape:vp_z="270.08322 : 140.16446 : 1"
       inkscape:persp3d-origin="135.04161 : 93.442972 : 1"
       id="perspective6274" /><clipPath
       clipPathUnits="userSpaceOnUse"
       id="clipPath2736"><path
         d="M 0,595.276 H 595.276 V 0 H 0 Z"
         id="path2734"
         inkscape:connector-curvature="0" /></clipPath></defs><sodipodi:namedview
     pagecolor="#ffffff"
     bordercolor="#666666"
     borderopacity="1"
     objecttolerance="10"
     gridtolerance="10"
     guidetolerance="10"
     inkscape:pageopacity="0"
     inkscape:pageshadow="2"
     inkscape:window-width="1366"
     inkscape:window-height="703"
     id="namedview2722"
     showgrid="false"
     inkscape:zoom="1.8371276"
     inkscape:cx="135.04161"
     inkscape:cy="140.16446"
     inkscape:window-x="0"
     inkscape:window-y="0"
     inkscape:window-maximized="1"
     inkscape:current-layer="g2728"
     fit-margin-top="0"
     fit-margin-left="0"
     fit-margin-right="0"
     fit-margin-bottom="0" /><g
     id="g2728"
     inkscape:groupmode="layer"
     inkscape:label="coronavirus-act-responsibly-publicdomainvectors.org"
     transform="matrix(1.3333333,0,0,-1.3333333,-246.63864,572.48227)"><path
       d="m 356.39564,380.92073 c 4.1926,-5.52825 3.10837,-13.40719 -2.41902,-17.59894 -2.78523,-2.11106 -6.16529,-2.88393 -9.369,-2.42493 -4.22804,0.60495 -8.0865,-0.3932 -11.48936,-2.97338 l -9.18252,-6.9618 c -2.88478,-2.18782 -7.9861,4.64148 -5.14941,6.79305 l 9.18254,6.96093 c 3.40284,2.5802 5.40507,6.02438 5.96362,10.25915 0.42357,3.21048 2.0807,6.25642 4.86507,8.36662 5.52656,4.19175 13.40718,3.10755 17.59808,-2.4207"
       style="fill:#aa0000;fill-opacity:1;fill-rule:evenodd;stroke:none;stroke-width:0.84375"
       id="path2740"
       inkscape:connector-curvature="0" /><path
       d="m 359.92083,273.59741 c -3.8205,-5.7915 -11.61,-7.38955 -17.40234,-3.56905 -2.91516,1.92289 -4.76973,4.85325 -5.40253,8.02995 -0.83532,4.18755 -3.05945,7.4925 -6.62513,9.84405 l -9.61875,6.345 c -3.02314,1.99293 1.72211,9.07452 4.69211,7.11532 l 9.61957,-6.34414 c 3.5657,-2.35154 7.47986,-3.09488 11.65895,-2.21316 3.16912,0.66741 6.59137,0.1191 9.50823,-1.80563 5.7915,-3.81964 7.38955,-11.61 3.56989,-17.40234"
       style="fill:#aa0000;fill-opacity:1;fill-rule:evenodd;stroke:none;stroke-width:0.84375"
       id="path2742"
       inkscape:connector-curvature="0" /><path
       d="m 206.83251,270.57004 c -4.04577,5.63625 -2.75568,13.48396 2.87888,17.53059 2.84007,2.03766 6.23785,2.72193 9.42975,2.17855 4.21117,-0.7155 8.09325,0.18225 11.56192,2.673 l 9.36225,6.71963 c 2.94045,2.11192 7.86206,-4.84818 4.97052,-6.92381 l -9.36057,-6.72046 c -3.47032,-2.49075 -5.562,-5.88179 -6.23107,-10.09968 -0.50795,-3.19782 -2.24186,-6.19905 -5.08023,-8.23755 -5.63625,-4.04493 -13.48565,-2.75652 -17.53145,2.87973"
       style="fill:#aa0000;fill-opacity:1;fill-rule:evenodd;stroke:none;stroke-width:0.84375"
       id="path2744"
       inkscape:connector-curvature="0" /><path
       d="m 195.98274,359.14016 c 2.56584,6.44625 9.87102,9.5909 16.31645,7.02507 3.24589,-1.2918 5.6548,-3.78507 6.91957,-6.76519 1.66725,-3.93273 4.51493,-6.71879 8.48393,-8.29743 l 10.70632,-4.2618 c 3.3632,-1.33988 0.15525,-9.23652 -3.15307,-7.92027 l -10.7055,4.26177 c -3.969,1.57867 -7.95236,1.51285 -11.86568,-0.19755 -2.96662,-1.29683 -6.4302,-1.45377 -9.67612,-0.1629 -6.44625,2.56584 -9.59175,9.87271 -7.0259,16.31812"
       style="fill:#aa0000;fill-opacity:1;fill-rule:evenodd;stroke:none;stroke-width:0.84375"
       id="path2746"
       inkscape:connector-curvature="0" /><path
       d="m 282.33549,417.71075 c 6.93732,0 12.5609,-5.62444 12.5609,-12.56089 0,-3.49482 -1.42593,-6.6555 -3.72852,-8.93195 -3.03498,-3.00375 -4.57061,-6.67912 -4.57061,-10.95187 v -11.52225 c 0,-3.62138 -8.52439,-3.55979 -8.52439,0 v 11.52225 c 0,4.27275 -1.53479,7.94812 -4.57061,10.95187 -2.30257,2.27645 -3.72768,5.43713 -3.72768,8.93195 0,6.93645 5.62275,12.56089 12.56091,12.56089"
       style="fill:#aa0000;fill-opacity:1;fill-rule:evenodd;stroke:none;stroke-width:0.84375"
       id="path2748"
       inkscape:connector-curvature="0" /><path
       d="m 282.33719,267.64223 c 31.46257,0 57.12607,25.66265 57.12607,57.12693 0,31.46427 -25.6635,57.12695 -57.12607,57.12695 -31.46513,0 -57.1278,-25.66268 -57.1278,-57.12695 0,-31.46428 25.66267,-57.12693 57.1278,-57.12693"
       style="fill:#808080;fill-opacity:1;fill-rule:evenodd;stroke:none;stroke-width:0.84375"
       id="path2750"
       inkscape:connector-curvature="0" /><path
       d="m 323.96274,363.88711 c 9.60863,-10.2212 15.49884,-23.98193 15.49884,-39.11795 0,-31.55035 -25.57659,-57.12693 -57.12609,-57.12693 -22.44123,0 -41.85675,12.94227 -51.19875,31.76718 10.42032,-11.0835 25.21377,-18.009 41.62809,-18.009 31.54866,0 57.12611,25.57659 57.12611,57.12777 0,9.1083 -2.13555,17.71793 -5.9282,25.35893"
       style="fill:#666666;fill-opacity:1;fill-rule:evenodd;stroke:none;stroke-width:0.84375"
       id="path2752"
       inkscape:connector-curvature="0" /><path
       d="m 270.07158,375.61523 c 16.52063,0 26.433,-13.39117 22.14506,-29.9101 -4.28877,-16.51809 -21.15618,-29.91009 -37.67427,-29.91009 -16.51811,0 -26.433,13.392 -22.14506,29.91009 4.28877,16.51893 21.15618,29.9101 37.67427,29.9101"
       style="fill:#999999;fill-opacity:1;fill-rule:evenodd;stroke:none;stroke-width:0.84375"
       id="path2754"
       inkscape:connector-curvature="0" /><path
       d="m 239.35994,397.51138 c 6.05643,3.3868 13.70925,1.22343 17.09605,-4.83215 1.70607,-3.04932 2.0039,-6.50362 1.10532,-9.61369 -1.18294,-4.10486 -0.70707,-8.05023 1.35675,-11.79056 l 3.89981,-7.06894 c 1.74909,-3.17081 -5.72148,-7.27818 -7.44018,-4.16054 l -3.89898,7.06811 c -2.06465,3.74118 -5.22027,6.18805 -9.33695,7.32795 -3.11932,0.86317 -5.90707,2.9253 -7.61314,5.9746 -3.38681,6.05475 -1.22343,13.7084 4.83132,17.09522"
       style="fill:#aa0000;fill-opacity:1;fill-rule:evenodd;stroke:none;stroke-width:0.84375"
       id="path2756"
       inkscape:connector-curvature="0" /><path
       d="m 365.90301,337.20604 c 0.85811,-6.88416 -4.02805,-13.16081 -10.91137,-14.01975 -3.46613,-0.43286 -6.77952,0.59232 -9.32427,2.59369 -3.35475,2.64263 -7.18961,3.6855 -11.43198,3.18177 l -8.01815,-0.95259 c -3.59437,-0.42693 -4.59,8.03925 -1.05468,8.45859 l 8.01815,0.95261 c 4.24237,0.50455 7.69585,2.50677 10.30135,5.89189 1.97438,2.56586 4.93425,4.37316 8.4012,4.80516 6.885,0.85809 13.16082,-4.02723 14.01975,-10.91137"
       style="fill:#aa0000;fill-opacity:1;fill-rule:evenodd;stroke:none;stroke-width:0.84375"
       id="path2758"
       inkscape:connector-curvature="0" /><path
       d="m 279.22712,240.33848 c -6.92636,0.41933 -12.19979,6.37283 -11.78129,13.29833 0.21083,3.48723 1.82588,6.5551 4.26093,8.6881 3.213,2.81645 4.9427,6.39395 5.2245,10.65488 l 0.5358,8.05696 c 0.24045,3.61293 8.74463,3.0375 8.50838,-0.51469 l -0.53411,-8.05527 c -0.2835,-4.26348 1.05131,-8.02743 3.90066,-11.20923 2.16084,-2.41143 3.39357,-5.65227 3.18263,-9.1395 -0.4185,-6.9255 -6.37368,-12.19893 -13.2975,-11.77958"
       style="fill:#aa0000;fill-opacity:1;fill-rule:evenodd;stroke:none;stroke-width:0.84375"
       id="path2760"
       inkscape:connector-curvature="0" /><path
       d="m 198.68696,312.89086 c -0.81338,6.89005 4.11328,13.13464 11.00335,13.94632 3.4695,0.40923 6.77445,-0.63787 9.3057,-2.65612 3.33873,-2.66456 7.16682,-3.73358 11.41173,-3.25856 l 8.02322,0.90029 c 3.5986,0.40246 4.536,-8.06963 0.99816,-8.46618 l -8.02238,-0.89945 c -4.24575,-0.47503 -7.71355,-2.45362 -10.341,-5.82187 -1.9921,-2.55404 -4.96293,-4.34025 -8.43243,-4.74863 -6.89007,-0.81337 -13.13382,4.11413 -13.94635,11.0042"
       style="fill:#aa0000;fill-opacity:1;fill-rule:evenodd;stroke:none;stroke-width:0.84375"
       id="path2762"
       inkscape:connector-curvature="0" /><path
       d="m 309.78269,380.16304 c 6.16527,-3.17841 8.58852,-10.75443 5.41095,-16.92056 -1.60143,-3.10585 -4.31745,-5.26162 -7.40558,-6.23025 -4.07617,-1.27912 -7.10269,-3.85594 -9.0813,-7.641 l -0.87327,-1.66894 c -1.67737,-3.20879 -9.22641,0.75094 -7.57687,3.90571 l 0.87327,1.66893 c 1.97775,3.78507 2.27644,7.76757 0.9526,11.83023 -1.00153,3.07715 -0.82266,6.54075 0.77795,9.6449 3.17925,6.16782 10.75443,8.58937 16.92225,5.41098"
       style="fill:#aa0000;fill-opacity:1;fill-rule:evenodd;stroke:none;stroke-width:0.84375"
       id="path2764"
       inkscape:connector-curvature="0" /><path
       d="m 322.09131,277.42718 c -5.38312,-4.37737 -13.29498,-3.56062 -17.67235,1.8225 -2.20302,2.71098 -3.08982,6.06236 -2.73965,9.28125 0.46068,4.24661 -0.68598,8.05193 -3.3615,11.3805 l -1.18042,1.46982 c -2.268,2.82236 4.38498,8.15148 6.61417,5.37723 l 1.17956,-1.46898 c 2.67721,-3.32944 6.20409,-5.19834 10.45489,-5.61346 3.22313,-0.31388 6.32561,-1.86638 8.52863,-4.57736 4.37485,-5.38395 3.56062,-13.29495 -1.82333,-17.6715"
       style="fill:#aa0000;fill-opacity:1;fill-rule:evenodd;stroke:none;stroke-width:0.84375"
       id="path2766"
       inkscape:connector-curvature="0" /><path
       d="m 245.63406,275.02081 c -5.5173,4.20694 -6.57705,12.08925 -2.3718,17.60655 2.11782,2.77762 5.16968,4.4263 8.38098,4.84057 4.23563,0.54845 7.66632,2.55573 10.2752,5.93663 l 1.1517,1.49007 c 2.21148,2.86791 8.95219,-2.3507 6.77869,-5.16797 l -1.15171,-1.49005 c -2.61056,-3.38261 -3.59943,-7.25205 -3.00629,-11.48175 0.44973,-3.20625 -0.33159,-6.5838 -2.45025,-9.36225 -4.20777,-5.5173 -12.08925,-6.57873 -17.60652,-2.3718"
       style="fill:#aa0000;fill-opacity:1;fill-rule:evenodd;stroke:none;stroke-width:0.84375"
       id="path2768"
       inkscape:connector-curvature="0" /><path
       d="m 273.26519,315.68113 c 6.8352,0 12.4107,5.57635 12.4107,12.41155 0,6.83775 -5.5755,12.41325 -12.4107,12.41325 -6.83775,0 -12.41325,-5.5755 -12.41325,-12.41325 0,-6.8352 5.5755,-12.41155 12.41325,-12.41155"
       style="fill:#aa0000;fill-opacity:1;fill-rule:evenodd;stroke:none;stroke-width:0.84375"
       id="path2770"
       inkscape:connector-curvature="0" /><path
       d="m 315.63746,294.89873 c -3.6332,-0.63705 -6.57957,-3.5311 -6.57957,-6.4623 0,-2.93202 2.94637,-4.7925 6.57957,-4.15545 3.63487,0.63702 6.57955,3.53025 6.57955,6.46313 0,2.93118 -2.94468,4.79164 -6.57955,4.15462 m -34.24613,-32.45148 c -3.63234,-0.63787 -6.57871,-3.53109 -6.57871,-6.46312 0,-2.93202 2.94637,-4.79165 6.57871,-4.15463 3.63404,0.63704 6.58041,3.53025 6.58041,6.46229 0,2.93202 -2.94637,4.79334 -6.58041,4.15546 m -26.61777,31.40438 c -3.63487,-0.63702 -6.58042,-3.53025 -6.58042,-6.46227 0,-2.9312 2.94555,-4.7925 6.58042,-4.15463 3.63318,0.63702 6.57788,3.53108 6.57788,6.46227 0,2.93204 -2.9447,4.7925 -6.57788,4.15463 m -35.59275,-6.7289 c -3.63405,-0.63787 -6.58042,-3.53194 -6.58042,-6.4623 0,-2.93287 2.94637,-4.79332 6.58042,-4.15545 3.63402,0.63702 6.57956,3.53108 6.57956,6.46227 0,2.93204 -2.94554,4.79336 -6.57956,4.15548 m -6.43023,36.04077 c -3.63402,-0.63619 -6.58039,-3.53109 -6.58039,-6.46227 0,-2.93205 2.94637,-4.7925 6.58039,-4.15548 3.63404,0.63788 6.57956,3.53111 6.57956,6.46313 0,2.93118 -2.94552,4.7925 -6.57956,4.15462 m -3.04257,40.49579 c -3.63318,-0.63788 -6.57955,-3.53111 -6.57955,-6.46313 0,-2.93118 2.94637,-4.79166 6.57955,-4.15548 3.63405,0.63788 6.58043,3.53111 6.58043,6.46313 0,2.93205 -2.94638,4.7925 -6.58043,4.15548 m 37.88693,31.88446 c -3.63405,-0.63702 -6.57873,-3.53025 -6.57873,-6.46144 0,-2.93288 2.94468,-4.7925 6.57873,-4.15545 3.63487,0.63702 6.58207,3.53025 6.58207,6.46227 0,2.93287 -2.9472,4.79335 -6.58207,4.15462 m 27.66655,-58.47271 c -3.63487,-0.63704 -6.57955,-3.53111 -6.57955,-6.46229 0,-2.93202 2.94468,-4.7925 6.57955,-4.15546 3.63402,0.63787 6.58125,3.53109 6.58125,6.46312 0,2.93202 -2.94723,4.79165 -6.58125,4.15463 m 73.05272,45.23764 c -3.63402,-0.63787 -6.57957,-3.53025 -6.57957,-6.46227 0,-2.93203 2.94555,-4.79166 6.57957,-4.15462 3.63487,0.63702 6.58041,3.53025 6.58041,6.46144 0,2.93288 -2.94554,4.7925 -6.58041,4.15545 m -42.09552,-3.18262 c -3.63405,-0.63702 -6.58125,-3.53025 -6.58125,-6.46227 0,-2.93204 2.9472,-4.7925 6.58125,-4.15463 3.63318,0.63702 6.5787,3.53025 6.5787,6.46227 0,2.93205 -2.94552,4.7925 -6.5787,4.15463 m -22.13325,35.59275 c -3.63405,-0.63702 -6.58043,-3.53108 -6.58043,-6.46227 0,-2.93204 2.94638,-4.7925 6.58043,-4.15631 3.63318,0.63788 6.5787,3.53108 6.5787,6.46313 0,2.93202 -2.94552,4.7925 -6.5787,4.15545 m 68.34205,-124.2312 c -3.63403,-0.63705 -6.58041,-3.53111 -6.58041,-6.46313 0,-2.93205 2.94638,-4.7925 6.58041,-4.15462 3.63234,0.63618 6.57872,3.53025 6.57872,6.46143 0,2.93287 -2.94638,4.7925 -6.57872,4.15632 m 3.88715,54.65895 c -3.63318,-0.63788 -6.5804,-3.53025 -6.5804,-6.46313 0,-2.93118 2.94722,-4.7925 6.5804,-4.15462 3.63405,0.63705 6.58042,3.5311 6.58042,6.46312 0,2.9312 -2.94637,4.79168 -6.58042,4.15463"
       style="fill:#ff5555;fill-opacity:1;fill-rule:evenodd;stroke:none;stroke-width:0.84375"
       id="path2772"
       inkscape:connector-curvature="0" /><g
       transform="matrix(0.72064921,0.43883798,-0.43883797,0.72064922,314.82417,-58.187314)"
       id="g6320"><ellipse
         style="opacity:1;fill:#ff4d00;fill-opacity:1;fill-rule:nonzero;stroke:none;stroke-width:5.6692915;stroke-linecap:round;stroke-linejoin:round;stroke-miterlimit:4;stroke-dasharray:none;stroke-dashoffset:0;stroke-opacity:1"
         id="ellipse6316"
         cx="145.30257"
         cy="-411.509"
         transform="scale(1,-1)"
         rx="5.0757217"
         ry="5.2901888" /><ellipse
         ry="5.2901888"
         rx="5.0757217"
         transform="scale(1,-1)"
         cy="-411.509"
         cx="154.30257"
         id="ellipse6318"
         style="opacity:1;fill:#ff4d00;fill-opacity:1;fill-rule:nonzero;stroke:none;stroke-width:5.6692915;stroke-linecap:round;stroke-linejoin:round;stroke-miterlimit:4;stroke-dasharray:none;stroke-dashoffset:0;stroke-opacity:1" /></g><g
       id="g6361"
       transform="matrix(0.84375,0,0,0.84375,191.68011,-0.76362726)"><ellipse
         ry="5.2901888"
         rx="5.0757217"
         transform="scale(1,-1)"
         cy="-411.509"
         cx="145.30257"
         id="ellipse6357"
         style="opacity:1;fill:#ff4d00;fill-opacity:1;fill-rule:nonzero;stroke:none;stroke-width:5.6692915;stroke-linecap:round;stroke-linejoin:round;stroke-miterlimit:4;stroke-dasharray:none;stroke-dashoffset:0;stroke-opacity:1" /><ellipse
         style="opacity:1;fill:#ff4d00;fill-opacity:1;fill-rule:nonzero;stroke:none;stroke-width:5.6692915;stroke-linecap:round;stroke-linejoin:round;stroke-miterlimit:4;stroke-dasharray:none;stroke-dashoffset:0;stroke-opacity:1"
         id="ellipse6359"
         cx="154.30257"
         cy="-411.509"
         transform="scale(1,-1)"
         rx="5.0757217"
         ry="5.2901888" /></g><g
       transform="matrix(0.46445502,-0.70441154,0.70441155,0.46445502,-64.585323,239.80925)"
       id="g6373"><ellipse
         style="opacity:1;fill:#ff4d00;fill-opacity:1;fill-rule:nonzero;stroke:none;stroke-width:5.6692915;stroke-linecap:round;stroke-linejoin:round;stroke-miterlimit:4;stroke-dasharray:none;stroke-dashoffset:0;stroke-opacity:1"
         id="ellipse6369"
         cx="145.30257"
         cy="-411.509"
         transform="scale(1,-1)"
         rx="5.0757217"
         ry="5.2901888" /><ellipse
         ry="5.2901888"
         rx="5.0757217"
         transform="scale(1,-1)"
         cy="-411.509"
         cx="154.30257"
         id="ellipse6371"
         style="opacity:1;fill:#ff4d00;fill-opacity:1;fill-rule:nonzero;stroke:none;stroke-width:5.6692915;stroke-linecap:round;stroke-linejoin:round;stroke-miterlimit:4;stroke-dasharray:none;stroke-dashoffset:0;stroke-opacity:1" /></g><g
       id="g6401"
       transform="matrix(0.84375,0,0,0.84375,121.28768,-4.3784775)"><ellipse
         ry="5.2901888"
         rx="5.0757217"
         transform="scale(1,-1)"
         cy="-411.509"
         cx="145.30257"
         id="ellipse6397"
         style="opacity:1;fill:#ff4d00;fill-opacity:1;fill-rule:nonzero;stroke:none;stroke-width:5.6692915;stroke-linecap:round;stroke-linejoin:round;stroke-miterlimit:4;stroke-dasharray:none;stroke-dashoffset:0;stroke-opacity:1" /><ellipse
         style="opacity:1;fill:#ff4d00;fill-opacity:1;fill-rule:nonzero;stroke:none;stroke-width:5.6692915;stroke-linecap:round;stroke-linejoin:round;stroke-miterlimit:4;stroke-dasharray:none;stroke-dashoffset:0;stroke-opacity:1"
         id="ellipse6399"
         cx="154.30257"
         cy="-411.509"
         transform="scale(1,-1)"
         rx="5.0757217"
         ry="5.2901888" /></g><g
       id="g6425"
       transform="matrix(0.76470249,-0.35657285,0.35657285,0.76470249,22.828845,28.726478)"><ellipse
         ry="5.2901888"
         rx="5.0757217"
         transform="scale(1,-1)"
         cy="-411.509"
         cx="145.30257"
         id="ellipse6421"
         style="opacity:1;fill:#ff4d00;fill-opacity:1;fill-rule:nonzero;stroke:none;stroke-width:5.6692915;stroke-linecap:round;stroke-linejoin:round;stroke-miterlimit:4;stroke-dasharray:none;stroke-dashoffset:0;stroke-opacity:1" /><ellipse
         style="opacity:1;fill:#ff4d00;fill-opacity:1;fill-rule:nonzero;stroke:none;stroke-width:5.6692915;stroke-linecap:round;stroke-linejoin:round;stroke-miterlimit:4;stroke-dasharray:none;stroke-dashoffset:0;stroke-opacity:1"
         id="ellipse6423"
         cx="154.30257"
         cy="-411.509"
         transform="scale(1,-1)"
         rx="5.0757217"
         ry="5.2901888" /></g><g
       transform="matrix(0.43942963,-0.72028859,0.72028858,0.43942964,-39.753941,238.53826)"
       id="g6437"><ellipse
         style="opacity:1;fill:#ff4d00;fill-opacity:1;fill-rule:nonzero;stroke:none;stroke-width:5.6692915;stroke-linecap:round;stroke-linejoin:round;stroke-miterlimit:4;stroke-dasharray:none;stroke-dashoffset:0;stroke-opacity:1"
         id="ellipse6433"
         cx="145.30257"
         cy="-411.509"
         transform="scale(1,-1)"
         rx="5.0757217"
         ry="5.2901888" /><ellipse
         ry="5.2901888"
         rx="5.0757217"
         transform="scale(1,-1)"
         cy="-411.509"
         cx="154.30257"
         id="ellipse6435"
         style="opacity:1;fill:#ff4d00;fill-opacity:1;fill-rule:nonzero;stroke:none;stroke-width:5.6692915;stroke-linecap:round;stroke-linejoin:round;stroke-miterlimit:4;stroke-dasharray:none;stroke-dashoffset:0;stroke-opacity:1" /></g><ellipse
       ry="2.7297206"
       rx="2.3885055"
       transform="matrix(0.52080551,-0.85367536,-0.85367536,-0.52080551,0,0)"
       cy="-438.52029"
       cx="-94.044441"
       id="ellipse6439"
       style="opacity:1;fill:#ffa27a;fill-opacity:1;fill-rule:nonzero;stroke:none;stroke-width:4.78346443;stroke-linecap:round;stroke-linejoin:round;stroke-miterlimit:4;stroke-dasharray:none;stroke-dashoffset:0;stroke-opacity:1" /><g
       id="g6449"
       transform="matrix(0.64196548,-0.54753483,0.54753483,0.64196549,-40.503978,181.42948)"><ellipse
         ry="5.2901888"
         rx="5.0757217"
         transform="scale(1,-1)"
         cy="-411.509"
         cx="145.30257"
         id="ellipse6445"
         style="opacity:1;fill:#ff4d00;fill-opacity:1;fill-rule:nonzero;stroke:none;stroke-width:5.6692915;stroke-linecap:round;stroke-linejoin:round;stroke-miterlimit:4;stroke-dasharray:none;stroke-dashoffset:0;stroke-opacity:1" /><ellipse
         style="opacity:1;fill:#ff4d00;fill-opacity:1;fill-rule:nonzero;stroke:none;stroke-width:5.6692915;stroke-linecap:round;stroke-linejoin:round;stroke-miterlimit:4;stroke-dasharray:none;stroke-dashoffset:0;stroke-opacity:1"
         id="ellipse6447"
         cx="154.30257"
         cy="-411.509"
         transform="scale(1,-1)"
         rx="5.0757217"
         ry="5.2901888" /></g><ellipse
       style="opacity:1;fill:#ffa27a;fill-opacity:1;fill-rule:nonzero;stroke:none;stroke-width:4.78346443;stroke-linecap:round;stroke-linejoin:round;stroke-miterlimit:4;stroke-dasharray:none;stroke-dashoffset:0;stroke-opacity:1"
       id="ellipse6492"
       cx="-101.42402"
       cy="-438.57474"
       transform="matrix(0.52080551,-0.85367536,-0.85367536,-0.52080551,0,0)"
       rx="2.3885055"
       ry="2.7297206" /><ellipse
       ry="2.7297206"
       rx="2.3885055"
       transform="matrix(0.52080551,-0.85367536,-0.85367536,-0.52080551,0,0)"
       cy="-455.71271"
       cx="-129.51527"
       id="ellipse6494"
       style="opacity:1;fill:#ffa27a;fill-opacity:1;fill-rule:nonzero;stroke:none;stroke-width:4.78346443;stroke-linecap:round;stroke-linejoin:round;stroke-miterlimit:4;stroke-dasharray:none;stroke-dashoffset:0;stroke-opacity:1" /><ellipse
       style="opacity:1;fill:#ffa27a;fill-opacity:1;fill-rule:nonzero;stroke:none;stroke-width:4.78346443;stroke-linecap:round;stroke-linejoin:round;stroke-miterlimit:4;stroke-dasharray:none;stroke-dashoffset:0;stroke-opacity:1"
       id="ellipse6496"
       cx="-133.47009"
       cy="-449.2301"
       transform="matrix(0.52080551,-0.85367536,-0.85367536,-0.52080551,0,0)"
       rx="2.3885055"
       ry="2.7297206" /><ellipse
       ry="2.7297206"
       rx="2.3885055"
       transform="matrix(0.52080551,-0.85367536,-0.85367536,-0.52080551,0,0)"
       cy="-422.66058"
       cx="-121.51066"
       id="ellipse6498"
       style="opacity:1;fill:#ffa27a;fill-opacity:1;fill-rule:nonzero;stroke:none;stroke-width:4.78346443;stroke-linecap:round;stroke-linejoin:round;stroke-miterlimit:4;stroke-dasharray:none;stroke-dashoffset:0;stroke-opacity:1" /><ellipse
       style="opacity:1;fill:#ffa27a;fill-opacity:1;fill-rule:nonzero;stroke:none;stroke-width:4.78346443;stroke-linecap:round;stroke-linejoin:round;stroke-miterlimit:4;stroke-dasharray:none;stroke-dashoffset:0;stroke-opacity:1"
       id="ellipse6500"
       cx="-128.89029"
       cy="-422.71497"
       transform="matrix(0.52080551,-0.85367536,-0.85367536,-0.52080551,0,0)"
       rx="2.3885055"
       ry="2.7297206" /><ellipse
       ry="2.7297206"
       rx="2.3885055"
       transform="matrix(0.52080551,-0.85367536,-0.85367536,-0.52080551,0,0)"
       cy="-431.63077"
       cx="-160.51518"
       id="ellipse6502"
       style="opacity:1;fill:#ffa27a;fill-opacity:1;fill-rule:nonzero;stroke:none;stroke-width:4.78346443;stroke-linecap:round;stroke-linejoin:round;stroke-miterlimit:4;stroke-dasharray:none;stroke-dashoffset:0;stroke-opacity:1" /><ellipse
       style="opacity:1;fill:#ffa27a;fill-opacity:1;fill-rule:nonzero;stroke:none;stroke-width:4.78346443;stroke-linecap:round;stroke-linejoin:round;stroke-miterlimit:4;stroke-dasharray:none;stroke-dashoffset:0;stroke-opacity:1"
       id="ellipse6504"
       cx="-168.13263"
       cy="-428.86523"
       transform="matrix(0.52080551,-0.85367536,-0.85367536,-0.52080551,0,0)"
       rx="2.3885055"
       ry="2.7297206" /><ellipse
       ry="2.7297206"
       rx="2.3885055"
       transform="matrix(0.52080551,-0.85367536,-0.85367536,-0.52080551,0,0)"
       cy="-369.79358"
       cx="-134.49004"
       id="ellipse6508"
       style="opacity:1;fill:#ffa27a;fill-opacity:1;fill-rule:nonzero;stroke:none;stroke-width:4.78346443;stroke-linecap:round;stroke-linejoin:round;stroke-miterlimit:4;stroke-dasharray:none;stroke-dashoffset:0;stroke-opacity:1" /><ellipse
       style="opacity:1;fill:#ffa27a;fill-opacity:1;fill-rule:nonzero;stroke:none;stroke-width:4.78346443;stroke-linecap:round;stroke-linejoin:round;stroke-miterlimit:4;stroke-dasharray:none;stroke-dashoffset:0;stroke-opacity:1"
       id="ellipse6510"
       cx="-134.54442"
       cy="-362.41403"
       transform="matrix(0.52080551,-0.85367536,-0.85367536,-0.52080551,0,0)"
       rx="2.3885055"
       ry="2.7297206" /><ellipse
       style="opacity:1;fill:#ffa27a;fill-opacity:1;fill-rule:nonzero;stroke:none;stroke-width:4.78346443;stroke-linecap:round;stroke-linejoin:round;stroke-miterlimit:4;stroke-dasharray:none;stroke-dashoffset:0;stroke-opacity:1"
       id="ellipse6514"
       cx="-166.48181"
       cy="-387.8287"
       transform="matrix(0.52080551,-0.85367536,-0.85367536,-0.52080551,0,0)"
       rx="2.3885055"
       ry="2.7297206" /><ellipse
       ry="2.7297206"
       rx="2.3885055"
       transform="matrix(0.52080551,-0.85367536,-0.85367536,-0.52080551,0,0)"
       cy="-394.31131"
       cx="-162.52699"
       id="ellipse6516"
       style="opacity:1;fill:#ffa27a;fill-opacity:1;fill-rule:nonzero;stroke:none;stroke-width:4.78346443;stroke-linecap:round;stroke-linejoin:round;stroke-miterlimit:4;stroke-dasharray:none;stroke-dashoffset:0;stroke-opacity:1" /><ellipse
       style="opacity:1;fill:#ffa27a;fill-opacity:1;fill-rule:nonzero;stroke:none;stroke-width:4.78346443;stroke-linecap:round;stroke-linejoin:round;stroke-miterlimit:4;stroke-dasharray:none;stroke-dashoffset:0;stroke-opacity:1"
       id="ellipse6518"
       cx="-103.06876"
       cy="-392.13602"
       transform="matrix(0.52080551,-0.85367536,-0.85367536,-0.52080551,0,0)"
       rx="2.3885055"
       ry="2.7297206" /><ellipse
       ry="2.7297206"
       rx="2.3885055"
       transform="matrix(0.52080551,-0.85367536,-0.85367536,-0.52080551,0,0)"
       cy="-395.56073"
       cx="-96.531723"
       id="ellipse6520"
       style="opacity:1;fill:#ffa27a;fill-opacity:1;fill-rule:nonzero;stroke:none;stroke-width:4.78346443;stroke-linecap:round;stroke-linejoin:round;stroke-miterlimit:4;stroke-dasharray:none;stroke-dashoffset:0;stroke-opacity:1" /></g></svg>